<svg xmlns="http://www.w3.org/2000/svg" width="800" height="800" viewBox="0 0 45.37 45.37" xml:space="preserve"><path d="M39.2.9H11.75a6.22 6.22 0 0 0-6.17 6.22v.6h-.54a5.04 5.04 0 0 0 0 10.1h.54v9.73h-.54a5.04 5.04 0 0 0 0 10.1h.54v.64a6.2 6.2 0 0 0 6.17 6.19H39.2a6.2 6.2 0 0 0 6.17-6.2V7.12c0-3.4-2.77-6.22-6.16-6.22zm-.45 35.12c0 1.3-1.06 2.36-2.37 2.36H15.61a2.36 2.36 0 0 1-2.36-2.36V9.56c0-1.3 1.05-2.36 2.36-2.36h20.77c1.3 0 2.36 1.06 2.36 2.36v26.45z"/><path d="M31.73 11.35H20.4a2.8 2.8 0 0 0-2.8 2.82v.05a2.8 2.8 0 0 0 2.8 2.81h11.32a2.81 2.81 0 0 0 2.81-2.8v-.06a2.81 2.81 0 0 0-2.81-2.82zM31.73 19.77H20.4a2.8 2.8 0 0 0-2.8 2.81v.06a2.8 2.8 0 0 0 2.8 2.8h11.32a2.8 2.8 0 0 0 2.81-2.8v-.06a2.82 2.82 0 0 0-2.81-2.81zM31.73 28.18H20.4a2.8 2.8 0 0 0-2.8 2.81v.06a2.8 2.8 0 0 0 2.8 2.8h11.32a2.8 2.8 0 0 0 2.81-2.8V31a2.82 2.82 0 0 0-2.81-2.82z"/></svg>